<svg xmlns="http://www.w3.org/2000/svg" version="1.1" xmlns:xlink="http://www.w3.org/1999/xlink" xmlns:svgjs="http://svgjs.com/svgjs" width="1440" height="560" preserveAspectRatio="none" viewBox="0 0 1440 560"><g mask="url(&quot;#SvgjsMask1468&quot;)" fill="none"><rect width="1440" height="560" x="0" y="0" fill="rgba(16, 15, 34, 1)"></rect><path d="M 0,92 C 288,78 1152,36 1440,22L1440 560L0 560z" fill="rgba(16, 15, 34, 1)"></path><path d="M 0,155 C 26.2,174.2 78.6,253 131,251 C 183.4,249 209.6,147.8 262,145 C 314.4,142.2 340.6,228.8 393,237 C 445.4,245.2 471.6,187.8 524,186 C 576.4,184.2 602.6,232.4 655,228 C 707.4,223.6 733.6,162 786,164 C 838.4,166 864.6,233.2 917,238 C 969.4,242.8 995.6,181.2 1048,188 C 1100.4,194.8 1126.6,273.6 1179,272 C 1231.4,270.4 1257.8,178.8 1310,180 C 1362.2,181.2 1414,258.4 1440,278L1440 560L0 560z" fill="rgba(16, 15, 34, 1)"></path><path d="M 0,347 C 96,355.2 288,395.4 480,388 C 672,380.6 768,315.4 960,310 C 1152,304.6 1344,350.8 1440,361L1440 560L0 560z" fill="rgba(16, 15, 34, 1)"></path><path d="M 0,473 C 41.2,484.6 123.6,535 206,531 C 288.4,527 329.6,447.8 412,453 C 494.4,458.2 535.6,562.8 618,557 C 700.4,551.2 741.6,427.8 824,424 C 906.4,420.2 947.6,531.2 1030,538 C 1112.4,544.8 1154,462.4 1236,458 C 1318,453.6 1399.2,504.4 1440,516L1440 560L0 560z" fill="rgba(255, 157, 245, 1)"></path></g><defs><mask id="SvgjsMask1468"><rect width="1440" height="560" fill="#ffffff"></rect></mask></defs></svg>